<?xml version="1.0" encoding="utf-8"?>
<!-- Generator: Adobe Illustrator 25.4.1, SVG Export Plug-In . SVG Version: 6.00 Build 0)  -->
<svg version="1.1" id="Layer_1" xmlns="http://www.w3.org/2000/svg" xmlns:xlink="http://www.w3.org/1999/xlink" x="0px" y="0px"
	 viewBox="0 0 289 239.7" style="enable-background:new 0 0 289 239.7;" xml:space="preserve">
<style type="text/css">
	.st0{fill:url(#SVGID_1_);}
	.st1{fill:#FFFFFF;}
	.st2{fill:#252B2A;}
	.st3{fill:url(#SVGID_00000165924065797556938830000010525499735968266883_);}
	.st4{fill:url(#SVGID_00000090282142341483271390000015251448958011003280_);}
	.st5{fill:url(#SVGID_00000003071492240320492650000002925823944394051478_);}
	.st6{fill:url(#SVGID_00000147936903807771315530000003425716577945274270_);}
	.st7{fill:url(#SVGID_00000112613854532058320930000001035773635076321954_);}
	.st8{fill:#059FBB;}
	.st9{fill:url(#SVGID_00000089547502176032096970000009354452087331349144_);}
	.st10{fill:url(#SVGID_00000129885640930478187720000007637528452456147128_);}
	.st11{fill:url(#SVGID_00000181068323922430056790000013214180249588125609_);}
	.st12{fill:url(#SVGID_00000008843053241038055200000000259377725245232519_);}
	.st13{fill:url(#SVGID_00000177444903207018675830000002718780129295646605_);}
</style>
<linearGradient id="SVGID_1_" gradientUnits="userSpaceOnUse" x1="144.509" y1="-25.4947" x2="144.509" y2="234.9945">
	<stop  offset="0" style="stop-color:#0174AA"/>
	<stop  offset="1" style="stop-color:#08CACC"/>
</linearGradient>
<rect class="st0" width="289" height="239.7"/>
<g>
	<g>
		<path class="st1" d="M64.7,198.1H50.2l-11.5-13.8h-9.9v13.8h-12v-40h33.8c4.2,0,7.1,0.6,8.7,1.8c1.5,1.2,2.3,3.5,2.3,6.8v9
			c0,3.3-0.7,5.5-2.2,6.6c-1.5,1.2-3.8,1.8-7.1,1.9L64.7,198.1z M49.8,174.5v-6.6c0-0.5-0.1-0.8-0.2-0.9c-0.2-0.1-0.5-0.2-0.9-0.2
			H28.8v8.7h19.8c0.5,0,0.8-0.1,0.9-0.2C49.8,175.2,49.8,174.9,49.8,174.5z"/>
		<path class="st1" d="M124.2,198.1h-12.7l-3.5-6.8H85.1l-3.6,6.8H68.3l21.9-40H103L124.2,198.1z M96.5,169.5L89,183.3h14.7
			l-7.2-13.8L96.5,169.5z"/>
		<g>
			<path class="st1" d="M143.8,168.4c1-1.1,1.7-2,2.2-2.5l7-7.8l-11.4,12.6c0,0,0,0,0,0C142,170.3,142.8,169.5,143.8,168.4z"/>
			<polyline class="st1" points="116.7,158.2 127.8,169.9 138.4,158.2 138.4,158.2 			"/>
			<g>
				<path class="st1" d="M153,158.2l-7,7.8c-0.4,0.5-1.2,1.3-2.2,2.5c-1,1.1-1.7,1.9-2.2,2.4c0,0,0,0,0,0l-6.3,7v20.4h12.2v-17.7
					l21.3-22.3H153z"/>
			</g>
		</g>
		<path class="st1" d="M217,198.1h-44.7v-5.6l24.7-25.3h-22.1v-9h41.1v5.2l-24.9,25.4H217V198.1z"/>
		<path class="st1" d="M272.2,198.1h-14.5l-11.5-13.8h-9.9v13.8h-12v-40h33.8c4.2,0,7.1,0.6,8.7,1.8c1.5,1.2,2.3,3.5,2.3,6.8v9
			c0,3.3-0.7,5.5-2.2,6.6c-1.5,1.2-3.8,1.8-7.1,1.9L272.2,198.1z M257.3,174.5v-6.6c0-0.5-0.1-0.8-0.2-0.9c-0.2-0.1-0.5-0.2-0.9-0.2
			h-19.8v8.7h19.8c0.5,0,0.8-0.1,0.9-0.2C257.2,175.2,257.3,174.9,257.3,174.5z"/>
	</g>
	<g>
		<path class="st1" d="M144.5,129.7c-28.8,0-52.2-23.4-52.2-52.2c0-3.2,0.3-6.4,0.9-9.5h-9.9c-0.5,3.1-0.7,6.3-0.7,9.5
			c0,34.2,27.8,61.9,61.9,61.9c11.6,0,22.5-3.2,31.8-8.8l-6-7.8C162.7,127.2,153.9,129.7,144.5,129.7z"/>
		<path class="st1" d="M206.5,77.5c0-34.2-27.8-61.9-61.9-61.9c-16,0-30.6,6.1-41.6,16.1h16.7c7.4-4,15.9-6.3,24.9-6.3
			c28.8,0,52.2,23.4,52.2,52.2c0,12.2-4.2,23.5-11.3,32.4l-31.3-41.1l-7.8,5.9l38.1,50.1C197.9,113.5,206.5,96.5,206.5,77.5z"/>
		<polygon class="st1" points="130,106.5 130,97.5 151.3,97.5 143.9,87.8 120.3,87.8 120.3,116.2 165.5,116.2 158.1,106.5 		"/>
		<path class="st1" d="M153.5,41.1h-56v0h-3c-2.2,3-4.1,6.2-5.8,9.6l0,0l-0.1,0.2h64.8c4.8,0,8.8,3.9,8.8,8.8s-3.9,8.8-8.8,8.8
			h-33.2v9.8h28.2l0.2-0.2l0.1,0.2h4.6c10.2,0,18.5-8.3,18.5-18.5S163.7,41.1,153.5,41.1z"/>
		<path class="st1" d="M187.1,107.6c-0.5,0.8-1.1,1.5-1.7,2.3l4.3,5.8L187.1,107.6z"/>
	</g>
	<g>
		<path class="st1" d="M16.9,224v-11.1h8.2v2.7H20v1.5h4.8v2.5H20v1.7h5.3v2.7H16.9z"/>
		<path class="st1" d="M30.8,224v-11.1h3v8.4h4.2v2.7H30.8z"/>
		<path class="st1" d="M43.3,224v-11.1h8.2v2.7h-5.2v1.5h4.8v2.5h-4.8v1.7h5.3v2.7H43.3z"/>
		<path class="st1" d="M67.4,214.8l-2.1,1.7c-0.7-0.8-1.5-1.2-2.6-1.2c-0.8,0-1.6,0.3-2.2,0.9s-0.9,1.3-0.9,2.2s0.3,1.6,0.9,2.2
			c0.6,0.6,1.3,0.8,2.2,0.8c1,0,1.9-0.4,2.6-1.2l2.1,1.7c-1.2,1.4-2.8,2.2-4.6,2.2c-1.7,0-3.1-0.5-4.3-1.6c-1.2-1.1-1.8-2.4-1.8-4.1
			s0.6-3,1.8-4.1c1.2-1.1,2.6-1.6,4.3-1.6C64.6,212.7,66.3,213.5,67.4,214.8z"/>
		<path class="st1" d="M74.8,224v-8.4h-3v-2.7h9v2.7h-2.9v8.4H74.8z"/>
		<path class="st1" d="M85.7,224v-11.1h5.1c1.1,0,2,0.4,2.8,1.1s1.2,1.6,1.2,2.7c0,1.4-0.8,2.7-1.9,3.2l2.8,4.1h-3.5l-2.3-3.5h0
			h-1.1v3.5H85.7z M88.8,218.1h1.7c0.8,0,1.3-0.5,1.3-1.3c0-0.7-0.5-1.2-1.1-1.2h-1.9V218.1z"/>
		<path class="st1" d="M100.7,224v-11.1h3V224H100.7z"/>
		<path class="st1" d="M119.8,214.8l-2.1,1.7c-0.7-0.8-1.5-1.2-2.6-1.2c-0.8,0-1.6,0.3-2.2,0.9s-0.9,1.3-0.9,2.2s0.3,1.6,0.9,2.2
			c0.6,0.6,1.3,0.8,2.2,0.8c1,0,1.9-0.4,2.6-1.2l2.1,1.7c-1.2,1.4-2.8,2.2-4.6,2.2c-1.7,0-3.1-0.5-4.3-1.6c-1.2-1.1-1.8-2.4-1.8-4.1
			s0.6-3,1.8-4.1c1.2-1.1,2.6-1.6,4.3-1.6C117,212.7,118.7,213.5,119.8,214.8z"/>
		<path class="st1" d="M123.9,224l4.5-11.1h2.8l4.5,11.1h-3.2l-0.6-1.5h-4.3l-0.6,1.5H123.9z M128.5,220.2h2.7l-1.3-3.5L128.5,220.2
			z"/>
		<path class="st1" d="M140.7,224v-11.1h3v8.4h4.2v2.7H140.7z"/>
		<path class="st1" d="M160.7,224l4.5-11.1h2.8l4.5,11.1h-3.2l-0.6-1.5h-4.3l-0.6,1.5H160.7z M165.3,220.2h2.7l-1.3-3.5L165.3,220.2
			z"/>
		<path class="st1" d="M177.6,224v-11.1h2.7l4.7,6v-6h2.9V224h-2.5l-4.9-6.2v6.2H177.6z"/>
		<path class="st1" d="M193.7,224v-11.1h4.5c1.9,0,3.4,0.5,4.4,1.5c1,1,1.5,2.4,1.5,4c0,1.7-0.5,3-1.5,4c-1,1-2.5,1.5-4.4,1.5H193.7
			z M196.7,221.2h1.3c1.3,0,2.2-0.3,2.6-0.8c0.4-0.6,0.5-1.1,0.5-1.9c0-0.8-0.1-1.4-0.5-1.9c-0.4-0.5-1.3-0.8-2.6-0.8h-1.3V221.2z"
			/>
		<path class="st1" d="M219.3,224v-11.1h4.5c1.9,0,3.4,0.5,4.4,1.5c1,1,1.5,2.4,1.5,4c0,1.7-0.5,3-1.5,4c-1,1-2.5,1.5-4.4,1.5H219.3
			z M222.3,221.2h1.3c1.3,0,2.2-0.3,2.6-0.8c0.4-0.6,0.5-1.1,0.5-1.9c0-0.8-0.1-1.4-0.5-1.9c-0.4-0.5-1.3-0.8-2.6-0.8h-1.3V221.2z"
			/>
		<path class="st1" d="M233.6,224l4.5-11.1h2.8l4.5,11.1h-3.2l-0.6-1.5h-4.3l-0.6,1.5H233.6z M238.2,220.2h2.7l-1.3-3.5L238.2,220.2
			z"/>
		<path class="st1" d="M251.4,224v-8.4h-3v-2.7h9v2.7h-2.9v8.4H251.4z"/>
		<path class="st1" d="M260.2,224l4.5-11.1h2.8l4.5,11.1h-3.2l-0.6-1.5H264l-0.6,1.5H260.2z M264.8,220.2h2.7l-1.3-3.5L264.8,220.2z
			"/>
	</g>
</g>
</svg>
